<svg xmlns="http://www.w3.org/2000/svg" width="200" height="150" viewBox="0 0 200 150">
  <!-- Background -->
  <rect width="200" height="150" fill="#FFF5F0"/>
  
  <!-- Dog head -->
  <circle cx="100" cy="60" r="35" fill="#8B4513"/>
  
  <!-- Ears -->
  <ellipse cx="75" cy="35" rx="12" ry="20" fill="#8B4513"/>
  <ellipse cx="125" cy="35" rx="12" ry="20" fill="#8B4513"/>
  <ellipse cx="75" cy="40" rx="7" ry="12" fill="#D2B48C"/>
  <ellipse cx="125" cy="40" rx="7" ry="12" fill="#D2B48C"/>
  
  <!-- Snout -->
  <ellipse cx="100" cy="70" rx="18" ry="15" fill="#A0522D"/>
  
  <!-- Eyes -->
  <circle cx="90" cy="55" r="4" fill="#000"/>
  <circle cx="110" cy="55" r="4" fill="#000"/>
  <circle cx="91" cy="54" r="1.5" fill="#fff"/>
  <circle cx="111" cy="54" r="1.5" fill="#fff"/>
  
  <!-- Nose -->
  <ellipse cx="100" cy="72" rx="5" ry="4" fill="#000"/>
  
  <!-- Mouth -->
  <path d="M 100 72 L 100 80" stroke="#000" stroke-width="1.5"/>
  <path d="M 95 76 Q 100 78 105 76" stroke="#000" stroke-width="1"/>
  
  <!-- Tongue -->
  <ellipse cx="100" cy="85" rx="4" ry="6" fill="#FF69B4" opacity="0.7"/>
  
  <!-- Body -->
  <rect x="75" y="90" width="50" height="40" fill="#8B4513" rx="8"/>
  
  <!-- Paws -->
  <rect x="80" y="125" width="8" height="15" fill="#8B4513" rx="4"/>
  <rect x="100" y="125" width="8" height="15" fill="#8B4513" rx="4"/>
  <rect x="112" y="125" width="8" height="15" fill="#8B4513" rx="4"/>
  
  <!-- Tail -->
  <path d="M 125 105 Q 145 100 140 85" stroke="#8B4513" stroke-width="12" fill="none" stroke-linecap="round"/>
  
  <!-- Service label -->
  <text x="100" y="148" font-size="10" font-weight="bold" fill="#8B4513" text-anchor="middle">Dog Care</text>
</svg>